<mxfile host="app.diagrams.net" modified="2023-03-22T09:28:30.466Z" agent="5.0 (X11; Linux x86_64) AppleWebKit/537.36 (KHTML, like Gecko) Chrome/111.0.0.0 Safari/537.36" etag="cah-RaEcyU5Qo2WwPumT" version="21.0.8" type="github" pages="2">
  <diagram id="yPxyJZ8AM_hMuL3Unpa9" name="complex gitflow">
    <mxGraphModel dx="1185" dy="648" grid="1" gridSize="10" guides="1" tooltips="1" connect="1" arrows="1" fold="1" page="1" pageScale="1" pageWidth="850" pageHeight="1100" math="0" shadow="0">
      <root>
        <mxCell id="0" />
        <mxCell id="1" parent="0" />
        <mxCell id="tKsx-mQqMKuEJ9UNjt0J-257" value="" style="endArrow=classic;html=1;strokeWidth=1;fontFamily=Courier New;fontColor=#009900;dashed=1;entryX=0.5;entryY=0;entryDx=0;entryDy=0;" parent="1" target="tKsx-mQqMKuEJ9UNjt0J-260" edge="1">
          <mxGeometry width="50" height="50" relative="1" as="geometry">
            <mxPoint x="910" y="960" as="sourcePoint" />
            <mxPoint x="910" y="1350" as="targetPoint" />
          </mxGeometry>
        </mxCell>
        <mxCell id="tKsx-mQqMKuEJ9UNjt0J-177" value="" style="rounded=0;orthogonalLoop=1;jettySize=auto;html=1;" parent="1" edge="1">
          <mxGeometry relative="1" as="geometry">
            <mxPoint x="735" y="980" as="sourcePoint" />
            <mxPoint x="735" y="1040" as="targetPoint" />
          </mxGeometry>
        </mxCell>
        <mxCell id="tKsx-mQqMKuEJ9UNjt0J-178" value="Hotfix Commit" style="text;html=1;strokeColor=none;fillColor=none;align=center;verticalAlign=middle;whiteSpace=wrap;overflow=hidden;" parent="1" vertex="1">
          <mxGeometry x="695.12" y="961" width="80" height="18" as="geometry" />
        </mxCell>
        <mxCell id="tKsx-mQqMKuEJ9UNjt0J-179" value="" style="edgeStyle=orthogonalEdgeStyle;rounded=0;html=1;jettySize=auto;orthogonalLoop=1;plain-blue;endArrow=none;endFill=0;strokeWidth=4;strokeColor=#000000;entryX=0;entryY=0.5;entryDx=0;entryDy=0;entryPerimeter=0;" parent="1" source="tKsx-mQqMKuEJ9UNjt0J-181" target="tKsx-mQqMKuEJ9UNjt0J-235" edge="1">
          <mxGeometry x="564.87" y="943" as="geometry">
            <mxPoint x="714.87" y="943" as="targetPoint" />
          </mxGeometry>
        </mxCell>
        <mxCell id="tKsx-mQqMKuEJ9UNjt0J-180" style="edgeStyle=orthogonalEdgeStyle;curved=1;rounded=0;html=1;exitX=1;exitY=0.5;exitPerimeter=0;entryX=0;entryY=0.5;entryPerimeter=0;endArrow=none;endFill=0;jettySize=auto;orthogonalLoop=1;strokeWidth=4;fontSize=15;" parent="1" source="tKsx-mQqMKuEJ9UNjt0J-181" target="tKsx-mQqMKuEJ9UNjt0J-189" edge="1">
          <mxGeometry relative="1" as="geometry" />
        </mxCell>
        <mxCell id="tKsx-mQqMKuEJ9UNjt0J-181" value="" style="verticalLabelPosition=bottom;verticalAlign=top;html=1;strokeWidth=4;shape=mxgraph.flowchart.on-page_reference;plain-blue;gradientColor=none;fillColor=#B5E3Fe;strokeColor=#000000;" parent="1" vertex="1">
          <mxGeometry x="534.87" y="928" width="30" height="30" as="geometry" />
        </mxCell>
        <mxCell id="tKsx-mQqMKuEJ9UNjt0J-182" value="" style="edgeStyle=orthogonalEdgeStyle;curved=1;rounded=0;orthogonalLoop=1;jettySize=auto;html=1;endArrow=none;endFill=0;strokeWidth=4;entryX=0;entryY=0.5;entryDx=0;entryDy=0;entryPerimeter=0;" parent="1" source="tKsx-mQqMKuEJ9UNjt0J-184" target="tKsx-mQqMKuEJ9UNjt0J-185" edge="1">
          <mxGeometry relative="1" as="geometry">
            <mxPoint x="1007.1199999999994" y="943" as="targetPoint" />
          </mxGeometry>
        </mxCell>
        <mxCell id="tKsx-mQqMKuEJ9UNjt0J-183" style="edgeStyle=orthogonalEdgeStyle;curved=1;rounded=0;orthogonalLoop=1;jettySize=auto;html=1;exitX=1;exitY=0.5;exitDx=0;exitDy=0;exitPerimeter=0;entryX=0;entryY=0.5;entryDx=0;entryDy=0;entryPerimeter=0;endArrow=none;endFill=0;strokeWidth=4;fontFamily=Courier New;fontColor=#009900;" parent="1" source="tKsx-mQqMKuEJ9UNjt0J-184" target="tKsx-mQqMKuEJ9UNjt0J-221" edge="1">
          <mxGeometry relative="1" as="geometry" />
        </mxCell>
        <mxCell id="tKsx-mQqMKuEJ9UNjt0J-184" value="" style="verticalLabelPosition=bottom;verticalAlign=top;html=1;strokeWidth=4;shape=mxgraph.flowchart.on-page_reference;plain-blue;gradientColor=none;strokeColor=#000000;fillColor=#B5E3FE;" parent="1" vertex="1">
          <mxGeometry x="894.8699999999999" y="928" width="30" height="30" as="geometry" />
        </mxCell>
        <mxCell id="tKsx-mQqMKuEJ9UNjt0J-185" value="" style="verticalLabelPosition=bottom;verticalAlign=top;html=1;strokeWidth=4;shape=mxgraph.flowchart.on-page_reference;plain-blue;gradientColor=none;strokeColor=#000000;fillColor=#B5E3FE;" parent="1" vertex="1">
          <mxGeometry x="1133.87" y="928" width="30" height="30" as="geometry" />
        </mxCell>
        <mxCell id="tKsx-mQqMKuEJ9UNjt0J-186" value="" style="edgeStyle=orthogonalEdgeStyle;rounded=0;html=1;jettySize=auto;orthogonalLoop=1;strokeWidth=4;endArrow=none;endFill=0;exitX=1;exitY=0.5;exitDx=0;exitDy=0;" parent="1" source="tKsx-mQqMKuEJ9UNjt0J-187" target="tKsx-mQqMKuEJ9UNjt0J-181" edge="1">
          <mxGeometry x="464.87" y="943" as="geometry">
            <mxPoint x="422.62" y="943" as="sourcePoint" />
          </mxGeometry>
        </mxCell>
        <mxCell id="tKsx-mQqMKuEJ9UNjt0J-187" value="master" style="text;html=1;strokeColor=none;fillColor=none;align=center;verticalAlign=middle;whiteSpace=wrap;overflow=hidden;fontSize=14;fontStyle=1;fontFamily=Courier New;" parent="1" vertex="1">
          <mxGeometry x="354.62" y="922" width="58" height="42" as="geometry" />
        </mxCell>
        <mxCell id="tKsx-mQqMKuEJ9UNjt0J-188" style="edgeStyle=orthogonalEdgeStyle;curved=1;rounded=0;html=1;exitX=1;exitY=0.5;exitPerimeter=0;endArrow=none;endFill=0;jettySize=auto;orthogonalLoop=1;strokeWidth=4;fontSize=15;" parent="1" source="tKsx-mQqMKuEJ9UNjt0J-189" target="tKsx-mQqMKuEJ9UNjt0J-191" edge="1">
          <mxGeometry relative="1" as="geometry" />
        </mxCell>
        <mxCell id="tKsx-mQqMKuEJ9UNjt0J-189" value="" style="verticalLabelPosition=bottom;verticalAlign=top;html=1;strokeWidth=4;shape=mxgraph.flowchart.on-page_reference;plain-purple;gradientColor=none;strokeColor=#000000;fillColor=#FFD966;" parent="1" vertex="1">
          <mxGeometry x="612.37" y="1045" width="30" height="30" as="geometry" />
        </mxCell>
        <mxCell id="tKsx-mQqMKuEJ9UNjt0J-190" style="edgeStyle=orthogonalEdgeStyle;curved=1;rounded=0;html=1;exitX=1;exitY=0.5;exitPerimeter=0;entryX=0;entryY=0.5;entryPerimeter=0;endArrow=none;endFill=0;jettySize=auto;orthogonalLoop=1;strokeWidth=4;fontSize=15;" parent="1" source="tKsx-mQqMKuEJ9UNjt0J-191" target="tKsx-mQqMKuEJ9UNjt0J-193" edge="1">
          <mxGeometry relative="1" as="geometry" />
        </mxCell>
        <mxCell id="tKsx-mQqMKuEJ9UNjt0J-191" value="" style="verticalLabelPosition=bottom;verticalAlign=top;html=1;strokeWidth=4;shape=mxgraph.flowchart.on-page_reference;plain-purple;gradientColor=none;strokeColor=#000000;fillColor=#FFD966;" parent="1" vertex="1">
          <mxGeometry x="720.12" y="1045" width="30" height="30" as="geometry" />
        </mxCell>
        <mxCell id="tKsx-mQqMKuEJ9UNjt0J-192" style="edgeStyle=orthogonalEdgeStyle;curved=1;rounded=0;html=1;exitX=1;exitY=0.5;exitPerimeter=0;entryX=0;entryY=0.5;entryPerimeter=0;endArrow=none;endFill=0;jettySize=auto;orthogonalLoop=1;strokeWidth=4;fontSize=15;" parent="1" source="tKsx-mQqMKuEJ9UNjt0J-193" target="tKsx-mQqMKuEJ9UNjt0J-184" edge="1">
          <mxGeometry relative="1" as="geometry" />
        </mxCell>
        <mxCell id="tKsx-mQqMKuEJ9UNjt0J-193" value="" style="verticalLabelPosition=bottom;verticalAlign=top;html=1;strokeWidth=4;shape=mxgraph.flowchart.on-page_reference;plain-purple;gradientColor=none;strokeColor=#000000;fillColor=#FFD966;" parent="1" vertex="1">
          <mxGeometry x="822.37" y="1045" width="30" height="30" as="geometry" />
        </mxCell>
        <mxCell id="tKsx-mQqMKuEJ9UNjt0J-194" value="rc" style="text;html=1;strokeColor=none;fillColor=none;align=left;verticalAlign=middle;whiteSpace=wrap;overflow=hidden;fontSize=14;fontStyle=1;fontFamily=Courier New;" parent="1" vertex="1">
          <mxGeometry x="388.62" y="1050" width="24" height="20" as="geometry" />
        </mxCell>
        <mxCell id="tKsx-mQqMKuEJ9UNjt0J-195" value="" style="edgeStyle=orthogonalEdgeStyle;rounded=0;orthogonalLoop=1;jettySize=auto;html=1;endArrow=none;endFill=0;strokeWidth=4;" parent="1" source="tKsx-mQqMKuEJ9UNjt0J-198" target="tKsx-mQqMKuEJ9UNjt0J-200" edge="1">
          <mxGeometry relative="1" as="geometry" />
        </mxCell>
        <mxCell id="tKsx-mQqMKuEJ9UNjt0J-196" style="edgeStyle=orthogonalEdgeStyle;rounded=0;orthogonalLoop=1;jettySize=auto;html=1;entryX=1;entryY=0.5;entryDx=0;entryDy=0;entryPerimeter=0;endArrow=none;endFill=0;strokeWidth=4;curved=1;" parent="1" source="tKsx-mQqMKuEJ9UNjt0J-198" target="tKsx-mQqMKuEJ9UNjt0J-189" edge="1">
          <mxGeometry relative="1" as="geometry" />
        </mxCell>
        <mxCell id="tKsx-mQqMKuEJ9UNjt0J-197" style="edgeStyle=orthogonalEdgeStyle;curved=1;rounded=0;orthogonalLoop=1;jettySize=auto;html=1;exitX=1;exitY=0.5;exitDx=0;exitDy=0;exitPerimeter=0;entryX=0;entryY=0.5;entryDx=0;entryDy=0;entryPerimeter=0;endArrow=none;endFill=0;strokeWidth=4;fontFamily=Courier New;fontColor=#009900;" parent="1" source="tKsx-mQqMKuEJ9UNjt0J-198" target="tKsx-mQqMKuEJ9UNjt0J-207" edge="1">
          <mxGeometry relative="1" as="geometry" />
        </mxCell>
        <mxCell id="tKsx-mQqMKuEJ9UNjt0J-198" value="" style="verticalLabelPosition=bottom;verticalAlign=top;html=1;strokeWidth=4;shape=mxgraph.flowchart.on-page_reference;plain-purple;gradientColor=none;strokeColor=#000000;fillColor=#D5E8D4;" parent="1" vertex="1">
          <mxGeometry x="686.62" y="1192" width="30" height="30" as="geometry" />
        </mxCell>
        <mxCell id="tKsx-mQqMKuEJ9UNjt0J-199" value="" style="edgeStyle=orthogonalEdgeStyle;curved=1;rounded=0;orthogonalLoop=1;jettySize=auto;html=1;endArrow=none;endFill=0;strokeWidth=4;" parent="1" source="tKsx-mQqMKuEJ9UNjt0J-200" target="tKsx-mQqMKuEJ9UNjt0J-202" edge="1">
          <mxGeometry relative="1" as="geometry" />
        </mxCell>
        <mxCell id="tKsx-mQqMKuEJ9UNjt0J-200" value="" style="verticalLabelPosition=bottom;verticalAlign=top;html=1;strokeWidth=4;shape=mxgraph.flowchart.on-page_reference;plain-purple;gradientColor=none;strokeColor=#000000;fillColor=#D5E8D4;" parent="1" vertex="1">
          <mxGeometry x="784.62" y="1192" width="30" height="30" as="geometry" />
        </mxCell>
        <mxCell id="tKsx-mQqMKuEJ9UNjt0J-201" value="" style="edgeStyle=orthogonalEdgeStyle;curved=1;rounded=0;orthogonalLoop=1;jettySize=auto;html=1;endArrow=none;endFill=0;strokeWidth=4;fontFamily=Courier New;fontColor=#009900;" parent="1" source="tKsx-mQqMKuEJ9UNjt0J-202" target="tKsx-mQqMKuEJ9UNjt0J-204" edge="1">
          <mxGeometry relative="1" as="geometry" />
        </mxCell>
        <mxCell id="tKsx-mQqMKuEJ9UNjt0J-202" value="" style="verticalLabelPosition=bottom;verticalAlign=top;html=1;strokeWidth=4;shape=mxgraph.flowchart.on-page_reference;plain-purple;gradientColor=none;strokeColor=#000000;fillColor=#D5E8D4;" parent="1" vertex="1">
          <mxGeometry x="864.6199999999999" y="1192" width="30" height="30" as="geometry" />
        </mxCell>
        <mxCell id="tKsx-mQqMKuEJ9UNjt0J-203" style="edgeStyle=orthogonalEdgeStyle;curved=1;rounded=0;orthogonalLoop=1;jettySize=auto;html=1;entryX=0;entryY=0.5;entryDx=0;entryDy=0;entryPerimeter=0;endArrow=none;endFill=0;strokeWidth=4;fontFamily=Courier New;fontColor=#009900;" parent="1" source="tKsx-mQqMKuEJ9UNjt0J-204" target="tKsx-mQqMKuEJ9UNjt0J-223" edge="1">
          <mxGeometry relative="1" as="geometry" />
        </mxCell>
        <mxCell id="tKsx-mQqMKuEJ9UNjt0J-204" value="" style="verticalLabelPosition=bottom;verticalAlign=top;html=1;strokeWidth=4;shape=mxgraph.flowchart.on-page_reference;plain-purple;gradientColor=none;strokeColor=#000000;fillColor=#D5E8D4;" parent="1" vertex="1">
          <mxGeometry x="966.6199999999999" y="1192" width="30" height="30" as="geometry" />
        </mxCell>
        <mxCell id="tKsx-mQqMKuEJ9UNjt0J-205" value="&amp;nbsp;dev/vX.X.X&lt;br&gt;test/vX.X.X&lt;br&gt;deck/VX.X.X" style="text;html=1;strokeColor=none;fillColor=none;align=left;verticalAlign=middle;whiteSpace=wrap;overflow=hidden;fontSize=14;fontStyle=1;fontFamily=Courier New;" parent="1" vertex="1">
          <mxGeometry x="312.62" y="1184.5" width="100" height="50" as="geometry" />
        </mxCell>
        <mxCell id="tKsx-mQqMKuEJ9UNjt0J-206" value="" style="edgeStyle=orthogonalEdgeStyle;rounded=0;orthogonalLoop=1;jettySize=auto;html=1;endArrow=none;endFill=0;strokeWidth=4;" parent="1" source="tKsx-mQqMKuEJ9UNjt0J-207" target="tKsx-mQqMKuEJ9UNjt0J-209" edge="1">
          <mxGeometry relative="1" as="geometry" />
        </mxCell>
        <mxCell id="tKsx-mQqMKuEJ9UNjt0J-207" value="" style="verticalLabelPosition=bottom;verticalAlign=top;html=1;strokeWidth=4;shape=mxgraph.flowchart.on-page_reference;plain-purple;gradientColor=none;strokeColor=#000000;fillColor=#B5739D;" parent="1" vertex="1">
          <mxGeometry x="770.62" y="1271" width="30" height="30" as="geometry" />
        </mxCell>
        <mxCell id="tKsx-mQqMKuEJ9UNjt0J-208" style="edgeStyle=orthogonalEdgeStyle;curved=1;rounded=0;orthogonalLoop=1;jettySize=auto;html=1;exitX=1;exitY=0.5;exitDx=0;exitDy=0;exitPerimeter=0;entryX=0;entryY=0.5;entryDx=0;entryDy=0;entryPerimeter=0;endArrow=none;endFill=0;strokeWidth=4;fontFamily=Courier New;fontColor=#009900;" parent="1" source="tKsx-mQqMKuEJ9UNjt0J-209" target="tKsx-mQqMKuEJ9UNjt0J-204" edge="1">
          <mxGeometry relative="1" as="geometry" />
        </mxCell>
        <mxCell id="tKsx-mQqMKuEJ9UNjt0J-209" value="" style="verticalLabelPosition=bottom;verticalAlign=top;html=1;strokeWidth=4;shape=mxgraph.flowchart.on-page_reference;plain-purple;gradientColor=none;strokeColor=#000000;fillColor=#B5739D;" parent="1" vertex="1">
          <mxGeometry x="881.6199999999999" y="1271" width="30" height="30" as="geometry" />
        </mxCell>
        <mxCell id="tKsx-mQqMKuEJ9UNjt0J-210" value="feat/JIRA-35--example-feature" style="text;html=1;strokeColor=none;fillColor=none;align=left;verticalAlign=middle;whiteSpace=wrap;overflow=hidden;fontSize=14;fontStyle=1;fontFamily=Courier New;" parent="1" vertex="1">
          <mxGeometry x="160" y="1271" width="252.62" height="37" as="geometry" />
        </mxCell>
        <mxCell id="tKsx-mQqMKuEJ9UNjt0J-211" value="development or sprint branch" style="text;html=1;strokeColor=none;fillColor=none;align=left;verticalAlign=middle;whiteSpace=wrap;overflow=hidden;fontSize=14;fontStyle=0;fontColor=#009900;" parent="1" vertex="1">
          <mxGeometry x="223.62" y="1234.5" width="189" height="20" as="geometry" />
        </mxCell>
        <mxCell id="tKsx-mQqMKuEJ9UNjt0J-212" value="feature branch" style="text;html=1;strokeColor=none;fillColor=none;align=left;verticalAlign=middle;whiteSpace=wrap;overflow=hidden;fontSize=14;fontStyle=0;fontColor=#009900;" parent="1" vertex="1">
          <mxGeometry x="312.62" y="1299" width="100" height="20" as="geometry" />
        </mxCell>
        <mxCell id="tKsx-mQqMKuEJ9UNjt0J-213" value="The release branch" style="text;html=1;strokeColor=none;fillColor=none;align=left;verticalAlign=middle;whiteSpace=wrap;overflow=hidden;fontSize=14;fontStyle=0;fontColor=#009900;" parent="1" vertex="1">
          <mxGeometry x="284.75" y="1065" width="127.87" height="20" as="geometry" />
        </mxCell>
        <mxCell id="tKsx-mQqMKuEJ9UNjt0J-214" value="The main branch&lt;br&gt;" style="text;html=1;strokeColor=none;fillColor=none;align=left;verticalAlign=middle;whiteSpace=wrap;overflow=hidden;fontSize=14;fontStyle=0;fontColor=#009900;" parent="1" vertex="1">
          <mxGeometry x="299.75" y="952" width="112.87" height="20" as="geometry" />
        </mxCell>
        <mxCell id="tKsx-mQqMKuEJ9UNjt0J-215" value="" style="endArrow=classic;html=1;strokeWidth=1;fontFamily=Courier New;fontColor=#009900;exitX=1;exitY=0.5;exitDx=0;exitDy=0;" parent="1" source="tKsx-mQqMKuEJ9UNjt0J-210" edge="1">
          <mxGeometry width="50" height="50" relative="1" as="geometry">
            <mxPoint x="455.5000000000001" y="1294.5" as="sourcePoint" />
            <mxPoint x="752.62" y="1290" as="targetPoint" />
          </mxGeometry>
        </mxCell>
        <mxCell id="tKsx-mQqMKuEJ9UNjt0J-216" value="" style="endArrow=classic;html=1;strokeWidth=1;fontFamily=Courier New;fontColor=#009900;exitX=1;exitY=0.5;exitDx=0;exitDy=0;" parent="1" source="tKsx-mQqMKuEJ9UNjt0J-205" edge="1">
          <mxGeometry width="50" height="50" relative="1" as="geometry">
            <mxPoint x="462.62" y="1210" as="sourcePoint" />
            <mxPoint x="662.62" y="1210" as="targetPoint" />
          </mxGeometry>
        </mxCell>
        <mxCell id="tKsx-mQqMKuEJ9UNjt0J-217" value="" style="endArrow=classic;html=1;strokeWidth=1;fontFamily=Courier New;fontColor=#009900;exitX=1;exitY=0.5;exitDx=0;exitDy=0;" parent="1" source="tKsx-mQqMKuEJ9UNjt0J-194" edge="1">
          <mxGeometry width="50" height="50" relative="1" as="geometry">
            <mxPoint x="489.37" y="1060" as="sourcePoint" />
            <mxPoint x="592.62" y="1060" as="targetPoint" />
          </mxGeometry>
        </mxCell>
        <mxCell id="tKsx-mQqMKuEJ9UNjt0J-218" value="v1.1.0" style="text;html=1;strokeColor=none;fillColor=none;align=center;verticalAlign=middle;whiteSpace=wrap;overflow=hidden;fontSize=14;" parent="1" vertex="1">
          <mxGeometry x="897.8699999999999" y="900" width="110" height="20" as="geometry" />
        </mxCell>
        <mxCell id="tKsx-mQqMKuEJ9UNjt0J-219" value="v1.0.0" style="text;html=1;strokeColor=none;fillColor=none;align=center;verticalAlign=middle;whiteSpace=wrap;overflow=hidden;fontSize=14;" parent="1" vertex="1">
          <mxGeometry x="553.87" y="900" width="77.75" height="20" as="geometry" />
        </mxCell>
        <mxCell id="tKsx-mQqMKuEJ9UNjt0J-220" value="" style="edgeStyle=orthogonalEdgeStyle;curved=1;rounded=0;orthogonalLoop=1;jettySize=auto;html=1;endArrow=none;endFill=0;strokeWidth=4;fontFamily=Courier New;fontColor=#009900;" parent="1" source="tKsx-mQqMKuEJ9UNjt0J-221" target="tKsx-mQqMKuEJ9UNjt0J-223" edge="1">
          <mxGeometry relative="1" as="geometry" />
        </mxCell>
        <mxCell id="tKsx-mQqMKuEJ9UNjt0J-221" value="" style="verticalLabelPosition=bottom;verticalAlign=top;html=1;strokeWidth=4;shape=mxgraph.flowchart.on-page_reference;plain-purple;gradientColor=none;strokeColor=#000000;fillColor=#FFD966;" parent="1" vertex="1">
          <mxGeometry x="969.3699999999999" y="1045" width="30" height="30" as="geometry" />
        </mxCell>
        <mxCell id="tKsx-mQqMKuEJ9UNjt0J-222" style="edgeStyle=orthogonalEdgeStyle;curved=1;rounded=0;orthogonalLoop=1;jettySize=auto;html=1;entryX=0;entryY=0.5;entryDx=0;entryDy=0;entryPerimeter=0;endArrow=none;endFill=0;strokeWidth=4;fontFamily=Courier New;fontColor=#009900;" parent="1" source="tKsx-mQqMKuEJ9UNjt0J-223" target="tKsx-mQqMKuEJ9UNjt0J-185" edge="1">
          <mxGeometry relative="1" as="geometry" />
        </mxCell>
        <mxCell id="tKsx-mQqMKuEJ9UNjt0J-223" value="" style="verticalLabelPosition=bottom;verticalAlign=top;html=1;strokeWidth=4;shape=mxgraph.flowchart.on-page_reference;plain-purple;gradientColor=none;strokeColor=#000000;fillColor=#FFD966;" parent="1" vertex="1">
          <mxGeometry x="1059.37" y="1045" width="30" height="30" as="geometry" />
        </mxCell>
        <mxCell id="tKsx-mQqMKuEJ9UNjt0J-224" value="v1.2.0" style="text;html=1;strokeColor=none;fillColor=none;align=center;verticalAlign=middle;whiteSpace=wrap;overflow=hidden;fontSize=14;" parent="1" vertex="1">
          <mxGeometry x="1093.87" y="900" width="110" height="20" as="geometry" />
        </mxCell>
        <mxCell id="tKsx-mQqMKuEJ9UNjt0J-229" value="" style="edgeStyle=orthogonalEdgeStyle;rounded=0;orthogonalLoop=1;jettySize=auto;html=1;fontSize=12;fontColor=#000000;exitX=1.004;exitY=0.589;exitDx=0;exitDy=0;exitPerimeter=0;" parent="1" source="tKsx-mQqMKuEJ9UNjt0J-230" edge="1">
          <mxGeometry relative="1" as="geometry">
            <mxPoint x="542.62" y="913" as="targetPoint" />
            <Array as="points">
              <mxPoint x="472.62" y="913" />
            </Array>
            <mxPoint x="422.62" y="913" as="sourcePoint" />
          </mxGeometry>
        </mxCell>
        <mxCell id="tKsx-mQqMKuEJ9UNjt0J-230" value="&lt;span style=&quot;text-align: center; font-size: 11px;&quot;&gt;Each tag represents a production release.&lt;/span&gt;" style="text;html=1;strokeColor=none;fillColor=none;align=left;verticalAlign=middle;whiteSpace=wrap;overflow=hidden;fontSize=11;fontStyle=0;fontColor=#000000;" parent="1" vertex="1">
          <mxGeometry x="305.62" y="891" width="107" height="38" as="geometry" />
        </mxCell>
        <mxCell id="tKsx-mQqMKuEJ9UNjt0J-231" value="Paradox git-release flows" style="text;html=1;strokeColor=none;fillColor=none;align=center;verticalAlign=middle;whiteSpace=wrap;rounded=0;fontSize=33;fontColor=#000000;" parent="1" vertex="1">
          <mxGeometry x="160" y="752" width="380" height="40" as="geometry" />
        </mxCell>
        <mxCell id="tKsx-mQqMKuEJ9UNjt0J-232" value="" style="endArrow=classic;html=1;strokeWidth=1;fontFamily=Courier New;fontColor=#009900;dashed=1;entryX=0.5;entryY=0;entryDx=0;entryDy=0;" parent="1" target="tKsx-mQqMKuEJ9UNjt0J-259" edge="1">
          <mxGeometry width="50" height="50" relative="1" as="geometry">
            <mxPoint x="1150" y="960" as="sourcePoint" />
            <mxPoint x="1150" y="1350" as="targetPoint" />
          </mxGeometry>
        </mxCell>
        <mxCell id="tKsx-mQqMKuEJ9UNjt0J-234" value="" style="edgeStyle=orthogonalEdgeStyle;rounded=0;orthogonalLoop=1;jettySize=auto;html=1;fontSize=15;endArrow=none;endFill=0;strokeWidth=4;entryX=0;entryY=0.5;entryDx=0;entryDy=0;entryPerimeter=0;" parent="1" source="tKsx-mQqMKuEJ9UNjt0J-235" target="tKsx-mQqMKuEJ9UNjt0J-184" edge="1">
          <mxGeometry relative="1" as="geometry">
            <mxPoint x="832.87" y="943" as="targetPoint" />
          </mxGeometry>
        </mxCell>
        <mxCell id="tKsx-mQqMKuEJ9UNjt0J-235" value="" style="verticalLabelPosition=bottom;verticalAlign=top;html=1;strokeWidth=4;shape=mxgraph.flowchart.on-page_reference;plain-blue;gradientColor=#EA6B66;strokeColor=#B85450;fillColor=#EA6B66;" parent="1" vertex="1">
          <mxGeometry x="720.12" y="928" width="30" height="30" as="geometry" />
        </mxCell>
        <mxCell id="tKsx-mQqMKuEJ9UNjt0J-236" value="v1.0.1" style="text;html=1;strokeColor=none;fillColor=none;align=center;verticalAlign=middle;whiteSpace=wrap;overflow=hidden;fontSize=14;" parent="1" vertex="1">
          <mxGeometry x="695.12" y="900" width="91.5" height="20" as="geometry" />
        </mxCell>
        <mxCell id="tKsx-mQqMKuEJ9UNjt0J-237" value="" style="edgeStyle=orthogonalEdgeStyle;rounded=0;html=1;jettySize=auto;orthogonalLoop=1;plain-blue;endArrow=none;endFill=0;strokeWidth=4;strokeColor=#000000;entryX=0;entryY=0.5;entryDx=0;entryDy=0;entryPerimeter=0;" parent="1" source="tKsx-mQqMKuEJ9UNjt0J-238" target="tKsx-mQqMKuEJ9UNjt0J-240" edge="1">
          <mxGeometry x="672" y="833" as="geometry">
            <mxPoint x="832.0000000000001" y="833" as="targetPoint" />
          </mxGeometry>
        </mxCell>
        <mxCell id="tKsx-mQqMKuEJ9UNjt0J-238" value="" style="verticalLabelPosition=bottom;verticalAlign=top;html=1;strokeWidth=4;shape=mxgraph.flowchart.on-page_reference;plain-blue;gradientColor=none;fillColor=#B5E3Fe;strokeColor=#000000;" parent="1" vertex="1">
          <mxGeometry x="642" y="818" width="30" height="30" as="geometry" />
        </mxCell>
        <mxCell id="tKsx-mQqMKuEJ9UNjt0J-239" value="" style="edgeStyle=orthogonalEdgeStyle;curved=1;rounded=0;orthogonalLoop=1;jettySize=auto;html=1;endArrow=none;endFill=0;strokeWidth=4;entryX=0;entryY=0.5;entryDx=0;entryDy=0;entryPerimeter=0;" parent="1" source="tKsx-mQqMKuEJ9UNjt0J-240" target="tKsx-mQqMKuEJ9UNjt0J-241" edge="1">
          <mxGeometry relative="1" as="geometry">
            <mxPoint x="1114.2499999999995" y="833" as="targetPoint" />
          </mxGeometry>
        </mxCell>
        <mxCell id="tKsx-mQqMKuEJ9UNjt0J-240" value="" style="verticalLabelPosition=bottom;verticalAlign=top;html=1;strokeWidth=4;shape=mxgraph.flowchart.on-page_reference;plain-blue;gradientColor=none;strokeColor=#000000;fillColor=#B5E3FE;" parent="1" vertex="1">
          <mxGeometry x="1002" y="818" width="30" height="30" as="geometry" />
        </mxCell>
        <mxCell id="tKsx-mQqMKuEJ9UNjt0J-241" value="" style="verticalLabelPosition=bottom;verticalAlign=top;html=1;strokeWidth=4;shape=mxgraph.flowchart.on-page_reference;plain-blue;gradientColor=none;strokeColor=#000;fillColor=#B5E3FE;" parent="1" vertex="1">
          <mxGeometry x="1241" y="818" width="30" height="30" as="geometry" />
        </mxCell>
        <mxCell id="tKsx-mQqMKuEJ9UNjt0J-242" value="enterprises" style="text;html=1;strokeColor=none;fillColor=none;align=center;verticalAlign=middle;whiteSpace=wrap;overflow=hidden;fontSize=14;fontStyle=1;fontFamily=Courier New;" parent="1" vertex="1">
          <mxGeometry x="310.75" y="812" width="101.87" height="42" as="geometry" />
        </mxCell>
        <mxCell id="tKsx-mQqMKuEJ9UNjt0J-243" value="v1.1.0" style="text;html=1;strokeColor=none;fillColor=none;align=center;verticalAlign=middle;whiteSpace=wrap;overflow=hidden;fontSize=14;" parent="1" vertex="1">
          <mxGeometry x="970" y="792" width="110" height="20" as="geometry" />
        </mxCell>
        <mxCell id="tKsx-mQqMKuEJ9UNjt0J-244" value="v1.0.0" style="text;html=1;strokeColor=none;fillColor=none;align=center;verticalAlign=middle;whiteSpace=wrap;overflow=hidden;fontSize=14;" parent="1" vertex="1">
          <mxGeometry x="622" y="792" width="80.62" height="20" as="geometry" />
        </mxCell>
        <mxCell id="tKsx-mQqMKuEJ9UNjt0J-245" value="v1.2.0" style="text;html=1;strokeColor=none;fillColor=none;align=center;verticalAlign=middle;whiteSpace=wrap;overflow=hidden;fontSize=14;" parent="1" vertex="1">
          <mxGeometry x="1192" y="790" width="110" height="20" as="geometry" />
        </mxCell>
        <mxCell id="tKsx-mQqMKuEJ9UNjt0J-246" style="edgeStyle=orthogonalEdgeStyle;curved=1;rounded=0;html=1;exitX=0.5;exitY=0;exitPerimeter=0;entryX=0.5;entryY=1;entryPerimeter=0;endArrow=none;endFill=0;jettySize=auto;orthogonalLoop=1;strokeWidth=4;fontSize=15;exitDx=0;exitDy=0;entryDx=0;entryDy=0;" parent="1" source="tKsx-mQqMKuEJ9UNjt0J-181" target="tKsx-mQqMKuEJ9UNjt0J-238" edge="1">
          <mxGeometry relative="1" as="geometry">
            <mxPoint x="574" y="879" as="sourcePoint" />
            <mxPoint x="622" y="964" as="targetPoint" />
          </mxGeometry>
        </mxCell>
        <mxCell id="tKsx-mQqMKuEJ9UNjt0J-247" style="edgeStyle=orthogonalEdgeStyle;curved=1;rounded=0;html=1;exitX=0.5;exitY=0;exitPerimeter=0;endArrow=none;endFill=0;jettySize=auto;orthogonalLoop=1;strokeWidth=4;fontSize=15;exitDx=0;exitDy=0;entryX=0.5;entryY=1;entryDx=0;entryDy=0;entryPerimeter=0;" parent="1" source="tKsx-mQqMKuEJ9UNjt0J-184" target="tKsx-mQqMKuEJ9UNjt0J-240" edge="1">
          <mxGeometry relative="1" as="geometry">
            <mxPoint x="914.3699999999999" y="922" as="sourcePoint" />
            <mxPoint x="1012.6199999999999" y="850" as="targetPoint" />
          </mxGeometry>
        </mxCell>
        <mxCell id="tKsx-mQqMKuEJ9UNjt0J-248" style="edgeStyle=orthogonalEdgeStyle;curved=1;rounded=0;html=1;exitX=0.5;exitY=0;exitPerimeter=0;endArrow=none;endFill=0;jettySize=auto;orthogonalLoop=1;strokeWidth=4;fontSize=15;exitDx=0;exitDy=0;" parent="1" target="tKsx-mQqMKuEJ9UNjt0J-241" edge="1">
          <mxGeometry relative="1" as="geometry">
            <mxPoint x="1164" y="942" as="sourcePoint" />
            <mxPoint x="1252.62" y="850" as="targetPoint" />
          </mxGeometry>
        </mxCell>
        <mxCell id="tKsx-mQqMKuEJ9UNjt0J-249" value="" style="endArrow=classic;html=1;strokeWidth=1;fontFamily=Courier New;fontColor=#009900;exitX=1;exitY=0.5;exitDx=0;exitDy=0;entryX=-0.086;entryY=0.547;entryDx=0;entryDy=0;entryPerimeter=0;" parent="1" target="tKsx-mQqMKuEJ9UNjt0J-238" edge="1">
          <mxGeometry width="50" height="50" relative="1" as="geometry">
            <mxPoint x="412.62" y="832.8" as="sourcePoint" />
            <mxPoint x="569.37" y="832.8" as="targetPoint" />
          </mxGeometry>
        </mxCell>
        <mxCell id="tKsx-mQqMKuEJ9UNjt0J-251" value="" style="shape=image;html=1;verticalAlign=top;verticalLabelPosition=bottom;labelBackgroundColor=#ffffff;imageAspect=0;aspect=fixed;image=https://cdn1.iconfinder.com/data/icons/social-media-2106/24/social_media_social_media_logo_docker-128.png" parent="1" vertex="1">
          <mxGeometry x="50.00000000000001" y="1439" width="80" height="80" as="geometry" />
        </mxCell>
        <mxCell id="tKsx-mQqMKuEJ9UNjt0J-252" value="Docker image created for each release/prerelease tag version" style="text;html=1;strokeColor=none;fillColor=none;align=left;verticalAlign=middle;whiteSpace=wrap;overflow=hidden;fontSize=14;fontStyle=0;fontColor=#009900;" parent="1" vertex="1">
          <mxGeometry x="139" y="1459" width="197.38" height="40" as="geometry" />
        </mxCell>
        <mxCell id="tKsx-mQqMKuEJ9UNjt0J-253" value="" style="edgeStyle=orthogonalEdgeStyle;html=1;jettySize=auto;orthogonalLoop=1;strokeWidth=2;endArrow=none;endFill=0;strokeColor=default;rounded=0;dashed=1;" parent="1" edge="1">
          <mxGeometry x="486.87" y="1440.5" as="geometry">
            <mxPoint x="140" y="1441" as="sourcePoint" />
            <mxPoint x="1360" y="1460" as="targetPoint" />
          </mxGeometry>
        </mxCell>
        <mxCell id="tKsx-mQqMKuEJ9UNjt0J-259" value="v1.2.0" style="text;html=1;strokeColor=none;fillColor=none;align=center;verticalAlign=middle;whiteSpace=wrap;overflow=hidden;fontSize=14;" parent="1" vertex="1">
          <mxGeometry x="1093.87" y="1380" width="110" height="20" as="geometry" />
        </mxCell>
        <mxCell id="tKsx-mQqMKuEJ9UNjt0J-260" value="v1.1.0" style="text;html=1;strokeColor=none;fillColor=none;align=center;verticalAlign=middle;whiteSpace=wrap;overflow=hidden;fontSize=14;" parent="1" vertex="1">
          <mxGeometry x="854.8699999999999" y="1380" width="110" height="20" as="geometry" />
        </mxCell>
        <mxCell id="tKsx-mQqMKuEJ9UNjt0J-261" value="" style="endArrow=classic;html=1;strokeWidth=1;fontFamily=Courier New;fontColor=#009900;dashed=1;entryX=0.5;entryY=0;entryDx=0;entryDy=0;" parent="1" target="tKsx-mQqMKuEJ9UNjt0J-263" edge="1">
          <mxGeometry width="50" height="50" relative="1" as="geometry">
            <mxPoint x="551.62" y="961" as="sourcePoint" />
            <mxPoint x="551.62" y="1351" as="targetPoint" />
          </mxGeometry>
        </mxCell>
        <mxCell id="tKsx-mQqMKuEJ9UNjt0J-263" value="v1.0.0" style="text;html=1;strokeColor=none;fillColor=none;align=center;verticalAlign=middle;whiteSpace=wrap;overflow=hidden;fontSize=14;" parent="1" vertex="1">
          <mxGeometry x="494.87" y="1380" width="110" height="20" as="geometry" />
        </mxCell>
        <mxCell id="tKsx-mQqMKuEJ9UNjt0J-264" value="" style="endArrow=classic;html=1;strokeWidth=1;fontFamily=Courier New;fontColor=#009900;dashed=1;exitX=0.5;exitY=1;exitDx=0;exitDy=0;exitPerimeter=0;entryX=0.5;entryY=0;entryDx=0;entryDy=0;" parent="1" source="tKsx-mQqMKuEJ9UNjt0J-189" target="tKsx-mQqMKuEJ9UNjt0J-284" edge="1">
          <mxGeometry width="50" height="50" relative="1" as="geometry">
            <mxPoint x="632" y="961" as="sourcePoint" />
            <mxPoint x="627.3699999999999" y="1398" as="targetPoint" />
          </mxGeometry>
        </mxCell>
        <mxCell id="tKsx-mQqMKuEJ9UNjt0J-267" value="" style="dashed=0;outlineConnect=0;html=1;align=center;labelPosition=center;verticalLabelPosition=bottom;verticalAlign=top;shape=mxgraph.weblogos.github" parent="1" vertex="1">
          <mxGeometry x="56" y="1022.5" width="75" height="75" as="geometry" />
        </mxCell>
        <mxCell id="tKsx-mQqMKuEJ9UNjt0J-268" value="" style="shape=curlyBracket;whiteSpace=wrap;html=1;rounded=1;labelPosition=left;verticalLabelPosition=middle;align=right;verticalAlign=middle;strokeWidth=2;" parent="1" vertex="1">
          <mxGeometry x="133" y="800" width="20" height="520" as="geometry" />
        </mxCell>
        <mxCell id="tKsx-mQqMKuEJ9UNjt0J-269" value="" style="endArrow=classic;html=1;strokeWidth=1;fontFamily=Courier New;fontColor=#009900;dashed=1;exitX=0.5;exitY=1;exitDx=0;exitDy=0;exitPerimeter=0;entryX=0.5;entryY=0;entryDx=0;entryDy=0;" parent="1" target="tKsx-mQqMKuEJ9UNjt0J-286" edge="1">
          <mxGeometry width="50" height="50" relative="1" as="geometry">
            <mxPoint x="734.75" y="1075" as="sourcePoint" />
            <mxPoint x="735.1199999999999" y="1398" as="targetPoint" />
          </mxGeometry>
        </mxCell>
        <mxCell id="tKsx-mQqMKuEJ9UNjt0J-272" value="" style="endArrow=classic;html=1;strokeWidth=1;fontFamily=Courier New;fontColor=#009900;dashed=1;exitX=0.5;exitY=1;exitDx=0;exitDy=0;exitPerimeter=0;entryX=0.5;entryY=0;entryDx=0;entryDy=0;" parent="1" target="tKsx-mQqMKuEJ9UNjt0J-288" edge="1">
          <mxGeometry width="50" height="50" relative="1" as="geometry">
            <mxPoint x="837" y="1075" as="sourcePoint" />
            <mxPoint x="837.3699999999999" y="1398" as="targetPoint" />
          </mxGeometry>
        </mxCell>
        <mxCell id="tKsx-mQqMKuEJ9UNjt0J-277" value="" style="edgeStyle=orthogonalEdgeStyle;html=1;jettySize=auto;orthogonalLoop=1;strokeWidth=2;endArrow=none;endFill=0;exitX=1.047;exitY=0.613;exitDx=0;exitDy=0;strokeColor=default;rounded=0;exitPerimeter=0;dashed=1;" parent="1" edge="1">
          <mxGeometry x="486.87" y="1517.5" as="geometry">
            <mxPoint x="139.76000000000022" y="1517.04" as="sourcePoint" />
            <mxPoint x="1360" y="1450" as="targetPoint" />
          </mxGeometry>
        </mxCell>
        <mxCell id="tKsx-mQqMKuEJ9UNjt0J-284" value="" style="shape=image;html=1;verticalAlign=top;verticalLabelPosition=bottom;labelBackgroundColor=#ffffff;imageAspect=0;aspect=fixed;image=https://cdn0.iconfinder.com/data/icons/social-media-2104/24/social_media_social_media_logo_docker-128.png" parent="1" vertex="1">
          <mxGeometry x="605.37" y="1475" width="44" height="44" as="geometry" />
        </mxCell>
        <mxCell id="tKsx-mQqMKuEJ9UNjt0J-285" value="v1.0.0-SNAPSHOT.1.fec68c0" style="text;html=1;strokeColor=none;fillColor=none;align=center;verticalAlign=middle;whiteSpace=wrap;overflow=hidden;fontSize=14;rotation=0;" parent="1" vertex="1">
          <mxGeometry x="200" y="1527" width="198" height="21" as="geometry" />
        </mxCell>
        <mxCell id="tKsx-mQqMKuEJ9UNjt0J-286" value="" style="shape=image;html=1;verticalAlign=top;verticalLabelPosition=bottom;labelBackgroundColor=#ffffff;imageAspect=0;aspect=fixed;image=https://cdn0.iconfinder.com/data/icons/social-media-2104/24/social_media_social_media_logo_docker-128.png" parent="1" vertex="1">
          <mxGeometry x="713.12" y="1475" width="44" height="44" as="geometry" />
        </mxCell>
        <mxCell id="tKsx-mQqMKuEJ9UNjt0J-287" value="v1.0.1-SNAPSHOT.2.xec61c0" style="text;html=1;strokeColor=none;fillColor=none;align=center;verticalAlign=middle;whiteSpace=wrap;overflow=hidden;fontSize=14;rotation=0;" parent="1" vertex="1">
          <mxGeometry x="200" y="1548" width="198" height="21" as="geometry" />
        </mxCell>
        <mxCell id="tKsx-mQqMKuEJ9UNjt0J-288" value="" style="shape=image;html=1;verticalAlign=top;verticalLabelPosition=bottom;labelBackgroundColor=#ffffff;imageAspect=0;aspect=fixed;image=https://cdn0.iconfinder.com/data/icons/social-media-2104/24/social_media_social_media_logo_docker-128.png" parent="1" vertex="1">
          <mxGeometry x="815.37" y="1475" width="44" height="44" as="geometry" />
        </mxCell>
        <mxCell id="tKsx-mQqMKuEJ9UNjt0J-289" value="v1.0.1-SNAPSHOT.2.aec11c0" style="text;html=1;strokeColor=none;fillColor=none;align=center;verticalAlign=middle;whiteSpace=wrap;overflow=hidden;fontSize=14;rotation=0;" parent="1" vertex="1">
          <mxGeometry x="200" y="1569" width="198" height="21" as="geometry" />
        </mxCell>
        <mxCell id="tKsx-mQqMKuEJ9UNjt0J-293" value="" style="shape=image;html=1;verticalAlign=top;verticalLabelPosition=bottom;labelBackgroundColor=#ffffff;imageAspect=0;aspect=fixed;image=https://cdn1.iconfinder.com/data/icons/ionicons-fill-vol-2/512/logo-docker-128.png" parent="1" vertex="1">
          <mxGeometry x="527.4300000000001" y="1398" width="44.87" height="44.87" as="geometry" />
        </mxCell>
        <mxCell id="tKsx-mQqMKuEJ9UNjt0J-294" value="" style="shape=image;html=1;verticalAlign=top;verticalLabelPosition=bottom;labelBackgroundColor=#ffffff;imageAspect=0;aspect=fixed;image=https://cdn1.iconfinder.com/data/icons/ionicons-fill-vol-2/512/logo-docker-128.png" parent="1" vertex="1">
          <mxGeometry x="887.4400000000002" y="1398" width="44.87" height="44.87" as="geometry" />
        </mxCell>
        <mxCell id="tKsx-mQqMKuEJ9UNjt0J-295" value="" style="shape=image;html=1;verticalAlign=top;verticalLabelPosition=bottom;labelBackgroundColor=#ffffff;imageAspect=0;aspect=fixed;image=https://cdn1.iconfinder.com/data/icons/ionicons-fill-vol-2/512/logo-docker-128.png" parent="1" vertex="1">
          <mxGeometry x="1126.4300000000003" y="1398" width="44.87" height="44.87" as="geometry" />
        </mxCell>
        <mxCell id="tKsx-mQqMKuEJ9UNjt0J-296" value="" style="shape=image;html=1;verticalAlign=top;verticalLabelPosition=bottom;labelBackgroundColor=#ffffff;imageAspect=0;aspect=fixed;image=https://cdn0.iconfinder.com/data/icons/social-media-2104/24/social_media_social_media_logo_docker-128.png" parent="1" vertex="1">
          <mxGeometry x="679.62" y="1612.04" width="44" height="44" as="geometry" />
        </mxCell>
        <mxCell id="tKsx-mQqMKuEJ9UNjt0J-297" value="v1.0.0-&lt;font color=&quot;#ff3333&quot;&gt;{branch-prefix}&lt;/font&gt;.1.bdeb2d4" style="text;html=1;strokeColor=none;fillColor=none;align=center;verticalAlign=middle;whiteSpace=wrap;overflow=hidden;fontSize=14;rotation=0;" parent="1" vertex="1">
          <mxGeometry x="199" y="1661" width="218" height="24" as="geometry" />
        </mxCell>
        <mxCell id="tKsx-mQqMKuEJ9UNjt0J-298" value="" style="shape=image;html=1;verticalAlign=top;verticalLabelPosition=bottom;labelBackgroundColor=#ffffff;imageAspect=0;aspect=fixed;image=https://cdn0.iconfinder.com/data/icons/social-media-2104/24/social_media_social_media_logo_docker-128.png" parent="1" vertex="1">
          <mxGeometry x="777.62" y="1612.04" width="44" height="44" as="geometry" />
        </mxCell>
        <mxCell id="tKsx-mQqMKuEJ9UNjt0J-300" value="" style="shape=image;html=1;verticalAlign=top;verticalLabelPosition=bottom;labelBackgroundColor=#ffffff;imageAspect=0;aspect=fixed;image=https://cdn0.iconfinder.com/data/icons/social-media-2104/24/social_media_social_media_logo_docker-128.png" parent="1" vertex="1">
          <mxGeometry x="857.6199999999999" y="1612.04" width="44" height="44" as="geometry" />
        </mxCell>
        <mxCell id="tKsx-mQqMKuEJ9UNjt0J-302" value="" style="edgeStyle=orthogonalEdgeStyle;html=1;jettySize=auto;orthogonalLoop=1;strokeWidth=2;endArrow=none;endFill=0;exitX=1.047;exitY=0.613;exitDx=0;exitDy=0;strokeColor=default;rounded=0;exitPerimeter=0;dashed=1;" parent="1" edge="1">
          <mxGeometry x="486.11" y="1655.5" as="geometry">
            <mxPoint x="139.00000000000023" y="1655.04" as="sourcePoint" />
            <mxPoint x="1360" y="1520" as="targetPoint" />
          </mxGeometry>
        </mxCell>
        <mxCell id="tKsx-mQqMKuEJ9UNjt0J-303" value="" style="shape=image;html=1;verticalAlign=top;verticalLabelPosition=bottom;labelBackgroundColor=#ffffff;imageAspect=0;aspect=fixed;image=https://cdn0.iconfinder.com/data/icons/social-media-2104/24/social_media_social_media_logo_docker-128.png" parent="1" vertex="1">
          <mxGeometry x="959.6199999999999" y="1612.04" width="44" height="44" as="geometry" />
        </mxCell>
        <mxCell id="tKsx-mQqMKuEJ9UNjt0J-309" value="" style="edgeStyle=orthogonalEdgeStyle;orthogonalLoop=1;jettySize=auto;html=1;entryX=0.25;entryY=1;entryDx=0;entryDy=0;exitX=1;exitY=0.5;exitDx=0;exitDy=0;rounded=1;dashed=1;" parent="1" source="tKsx-mQqMKuEJ9UNjt0J-287" target="tKsx-mQqMKuEJ9UNjt0J-286" edge="1">
          <mxGeometry relative="1" as="geometry">
            <mxPoint x="488" y="1541" as="sourcePoint" />
            <mxPoint x="615" y="1507" as="targetPoint" />
          </mxGeometry>
        </mxCell>
        <mxCell id="tKsx-mQqMKuEJ9UNjt0J-310" value="" style="edgeStyle=orthogonalEdgeStyle;orthogonalLoop=1;jettySize=auto;html=1;entryX=0.5;entryY=1;entryDx=0;entryDy=0;exitX=1;exitY=0.5;exitDx=0;exitDy=0;rounded=1;dashed=1;" parent="1" source="tKsx-mQqMKuEJ9UNjt0J-289" target="tKsx-mQqMKuEJ9UNjt0J-288" edge="1">
          <mxGeometry relative="1" as="geometry">
            <mxPoint x="478" y="1575" as="sourcePoint" />
            <mxPoint x="605" y="1541" as="targetPoint" />
          </mxGeometry>
        </mxCell>
        <mxCell id="tKsx-mQqMKuEJ9UNjt0J-311" value="" style="edgeStyle=orthogonalEdgeStyle;orthogonalLoop=1;jettySize=auto;html=1;exitX=1;exitY=0.5;exitDx=0;exitDy=0;rounded=1;dashed=1;" parent="1" source="tKsx-mQqMKuEJ9UNjt0J-285" target="tKsx-mQqMKuEJ9UNjt0J-284" edge="1">
          <mxGeometry relative="1" as="geometry">
            <mxPoint x="478" y="1541" as="sourcePoint" />
            <mxPoint x="630" y="1520" as="targetPoint" />
            <Array as="points">
              <mxPoint x="627" y="1538" />
            </Array>
          </mxGeometry>
        </mxCell>
        <mxCell id="tKsx-mQqMKuEJ9UNjt0J-312" value="v1.0.0-&lt;font style=&quot;border-color: var(--border-color);&quot; color=&quot;#ff3333&quot;&gt;{branch-prefix}&lt;/font&gt;.2.bdeb2d4" style="text;html=1;strokeColor=none;fillColor=none;align=center;verticalAlign=middle;whiteSpace=wrap;overflow=hidden;fontSize=14;rotation=0;" parent="1" vertex="1">
          <mxGeometry x="199" y="1685" width="218" height="24" as="geometry" />
        </mxCell>
        <mxCell id="tKsx-mQqMKuEJ9UNjt0J-313" value="v1.0.0-&lt;font style=&quot;border-color: var(--border-color);&quot; color=&quot;#ff3333&quot;&gt;{branch-prefix}&lt;/font&gt;.3.bdeb2d4" style="text;html=1;strokeColor=none;fillColor=none;align=center;verticalAlign=middle;whiteSpace=wrap;overflow=hidden;fontSize=14;rotation=0;" parent="1" vertex="1">
          <mxGeometry x="199" y="1708" width="218" height="24" as="geometry" />
        </mxCell>
        <mxCell id="tKsx-mQqMKuEJ9UNjt0J-314" value="v1.0.0-&lt;font style=&quot;border-color: var(--border-color);&quot; color=&quot;#ff3333&quot;&gt;{branch-prefix}&lt;/font&gt;.4.bdeb2d4" style="text;html=1;strokeColor=none;fillColor=none;align=center;verticalAlign=middle;whiteSpace=wrap;overflow=hidden;fontSize=14;rotation=0;" parent="1" vertex="1">
          <mxGeometry x="199" y="1732" width="218" height="24" as="geometry" />
        </mxCell>
        <mxCell id="tKsx-mQqMKuEJ9UNjt0J-315" value="" style="edgeStyle=orthogonalEdgeStyle;orthogonalLoop=1;jettySize=auto;html=1;rounded=1;dashed=1;" parent="1" source="tKsx-mQqMKuEJ9UNjt0J-297" edge="1">
          <mxGeometry relative="1" as="geometry">
            <mxPoint x="473" y="1675.04" as="sourcePoint" />
            <mxPoint x="700" y="1660" as="targetPoint" />
            <Array as="points">
              <mxPoint x="700" y="1675" />
            </Array>
          </mxGeometry>
        </mxCell>
        <mxCell id="tKsx-mQqMKuEJ9UNjt0J-316" value="" style="edgeStyle=orthogonalEdgeStyle;orthogonalLoop=1;jettySize=auto;html=1;rounded=1;dashed=1;exitX=1;exitY=0.5;exitDx=0;exitDy=0;" parent="1" source="tKsx-mQqMKuEJ9UNjt0J-312" edge="1">
          <mxGeometry relative="1" as="geometry">
            <mxPoint x="478" y="1700" as="sourcePoint" />
            <mxPoint x="790" y="1660" as="targetPoint" />
            <Array as="points">
              <mxPoint x="790" y="1697" />
            </Array>
          </mxGeometry>
        </mxCell>
        <mxCell id="tKsx-mQqMKuEJ9UNjt0J-317" value="" style="edgeStyle=orthogonalEdgeStyle;orthogonalLoop=1;jettySize=auto;html=1;rounded=1;dashed=1;exitX=1;exitY=0.5;exitDx=0;exitDy=0;" parent="1" source="tKsx-mQqMKuEJ9UNjt0J-313" edge="1">
          <mxGeometry relative="1" as="geometry">
            <mxPoint x="478" y="1725" as="sourcePoint" />
            <mxPoint x="880" y="1660" as="targetPoint" />
            <Array as="points">
              <mxPoint x="880" y="1720" />
            </Array>
          </mxGeometry>
        </mxCell>
        <mxCell id="tKsx-mQqMKuEJ9UNjt0J-318" value="" style="edgeStyle=orthogonalEdgeStyle;orthogonalLoop=1;jettySize=auto;html=1;rounded=1;dashed=1;exitX=1;exitY=0.5;exitDx=0;exitDy=0;" parent="1" source="tKsx-mQqMKuEJ9UNjt0J-314" edge="1">
          <mxGeometry relative="1" as="geometry">
            <mxPoint x="572.3" y="1745" as="sourcePoint" />
            <mxPoint x="974" y="1660" as="targetPoint" />
            <Array as="points">
              <mxPoint x="974" y="1744" />
            </Array>
          </mxGeometry>
        </mxCell>
        <mxCell id="tKsx-mQqMKuEJ9UNjt0J-320" value="" style="shape=image;html=1;verticalAlign=top;verticalLabelPosition=bottom;labelBackgroundColor=#ffffff;imageAspect=0;aspect=fixed;image=https://cdn4.iconfinder.com/data/icons/48-bubbles/48/06.Tags-128.png" parent="1" vertex="1">
          <mxGeometry x="150" y="1538.5" width="40" height="40" as="geometry" />
        </mxCell>
        <mxCell id="tKsx-mQqMKuEJ9UNjt0J-321" value="" style="shape=image;html=1;verticalAlign=top;verticalLabelPosition=bottom;labelBackgroundColor=#ffffff;imageAspect=0;aspect=fixed;image=https://cdn4.iconfinder.com/data/icons/48-bubbles/48/06.Tags-128.png" parent="1" vertex="1">
          <mxGeometry x="150" y="1685" width="40" height="40" as="geometry" />
        </mxCell>
        <mxCell id="tKsx-mQqMKuEJ9UNjt0J-322" value="" style="shape=image;html=1;verticalAlign=top;verticalLabelPosition=bottom;labelBackgroundColor=#ffffff;imageAspect=0;aspect=fixed;image=https://cdn4.iconfinder.com/data/icons/48-bubbles/48/05.Tag-128.png" parent="1" vertex="1">
          <mxGeometry x="514.4300000000001" y="1383" width="16" height="16" as="geometry" />
        </mxCell>
        <mxCell id="tKsx-mQqMKuEJ9UNjt0J-323" value="" style="shape=image;html=1;verticalAlign=top;verticalLabelPosition=bottom;labelBackgroundColor=#ffffff;imageAspect=0;aspect=fixed;image=https://cdn4.iconfinder.com/data/icons/48-bubbles/48/05.Tag-128.png" parent="1" vertex="1">
          <mxGeometry x="874.6200000000001" y="1383" width="16" height="16" as="geometry" />
        </mxCell>
        <mxCell id="tKsx-mQqMKuEJ9UNjt0J-324" value="" style="shape=image;html=1;verticalAlign=top;verticalLabelPosition=bottom;labelBackgroundColor=#ffffff;imageAspect=0;aspect=fixed;image=https://cdn4.iconfinder.com/data/icons/48-bubbles/48/05.Tag-128.png" parent="1" vertex="1">
          <mxGeometry x="1112.8700000000001" y="1383" width="16" height="16" as="geometry" />
        </mxCell>
        <mxCell id="JxtkYLZ8cqtNsmtgbzC3-1" value="" style="endArrow=classic;html=1;strokeWidth=1;fontFamily=Courier New;fontColor=#009900;dashed=1;exitX=0.5;exitY=1;exitDx=0;exitDy=0;exitPerimeter=0;" edge="1" parent="1" source="tKsx-mQqMKuEJ9UNjt0J-198" target="tKsx-mQqMKuEJ9UNjt0J-296">
          <mxGeometry width="50" height="50" relative="1" as="geometry">
            <mxPoint x="744.75" y="1085" as="sourcePoint" />
            <mxPoint x="745" y="1485" as="targetPoint" />
          </mxGeometry>
        </mxCell>
        <mxCell id="JxtkYLZ8cqtNsmtgbzC3-2" value="" style="endArrow=classic;html=1;strokeWidth=1;fontFamily=Courier New;fontColor=#009900;dashed=1;exitX=0.5;exitY=1;exitDx=0;exitDy=0;exitPerimeter=0;" edge="1" parent="1">
          <mxGeometry width="50" height="50" relative="1" as="geometry">
            <mxPoint x="799.33" y="1222.04" as="sourcePoint" />
            <mxPoint x="799.33" y="1612.04" as="targetPoint" />
          </mxGeometry>
        </mxCell>
        <mxCell id="JxtkYLZ8cqtNsmtgbzC3-3" value="" style="endArrow=classic;html=1;strokeWidth=1;fontFamily=Courier New;fontColor=#009900;dashed=1;exitX=0.5;exitY=1;exitDx=0;exitDy=0;exitPerimeter=0;" edge="1" parent="1">
          <mxGeometry width="50" height="50" relative="1" as="geometry">
            <mxPoint x="879.33" y="1222.04" as="sourcePoint" />
            <mxPoint x="879.33" y="1612.04" as="targetPoint" />
          </mxGeometry>
        </mxCell>
        <mxCell id="JxtkYLZ8cqtNsmtgbzC3-4" value="" style="endArrow=classic;html=1;strokeWidth=1;fontFamily=Courier New;fontColor=#009900;dashed=1;exitX=0.5;exitY=1;exitDx=0;exitDy=0;exitPerimeter=0;" edge="1" parent="1">
          <mxGeometry width="50" height="50" relative="1" as="geometry">
            <mxPoint x="981.33" y="1225.44" as="sourcePoint" />
            <mxPoint x="981.33" y="1615.44" as="targetPoint" />
          </mxGeometry>
        </mxCell>
      </root>
    </mxGraphModel>
  </diagram>
  <diagram id="eWztX-HKV9PbQhigdnBN" name="simple gitflow">
    <mxGraphModel dx="1053" dy="824" grid="1" gridSize="10" guides="1" tooltips="1" connect="1" arrows="1" fold="1" page="1" pageScale="1" pageWidth="850" pageHeight="1100" math="0" shadow="0">
      <root>
        <mxCell id="QUeHIoVe-N7WYJK59KCd-0" />
        <mxCell id="QUeHIoVe-N7WYJK59KCd-1" parent="QUeHIoVe-N7WYJK59KCd-0" />
        <mxCell id="QUeHIoVe-N7WYJK59KCd-26" value="" style="edgeStyle=orthogonalEdgeStyle;orthogonalLoop=1;jettySize=auto;html=1;dashed=1;startFill=0;endArrow=none;endFill=0;strokeColor=#6c8ebf;fillColor=#dae8fc;" parent="QUeHIoVe-N7WYJK59KCd-1" source="QUeHIoVe-N7WYJK59KCd-14" target="QUeHIoVe-N7WYJK59KCd-25" edge="1">
          <mxGeometry relative="1" as="geometry" />
        </mxCell>
        <mxCell id="QUeHIoVe-N7WYJK59KCd-40" style="edgeStyle=orthogonalEdgeStyle;orthogonalLoop=1;jettySize=auto;html=1;entryX=0;entryY=0.5;entryDx=0;entryDy=0;dashed=1;startFill=0;endArrow=none;endFill=0;strokeColor=#6c8ebf;fillColor=#dae8fc;" parent="QUeHIoVe-N7WYJK59KCd-1" source="QUeHIoVe-N7WYJK59KCd-14" target="QUeHIoVe-N7WYJK59KCd-32" edge="1">
          <mxGeometry relative="1" as="geometry">
            <Array as="points">
              <mxPoint x="55" y="95" />
            </Array>
          </mxGeometry>
        </mxCell>
        <mxCell id="QUeHIoVe-N7WYJK59KCd-14" value="V1.0" style="ellipse;whiteSpace=wrap;html=1;aspect=fixed;fillColor=#dae8fc;strokeColor=#6c8ebf;labelPosition=center;verticalLabelPosition=top;align=center;verticalAlign=bottom;" parent="QUeHIoVe-N7WYJK59KCd-1" vertex="1">
          <mxGeometry x="40" y="40" width="30" height="30" as="geometry" />
        </mxCell>
        <mxCell id="QUeHIoVe-N7WYJK59KCd-28" value="" style="edgeStyle=orthogonalEdgeStyle;orthogonalLoop=1;jettySize=auto;html=1;dashed=1;startFill=0;endArrow=none;endFill=0;strokeColor=#6c8ebf;fillColor=#dae8fc;" parent="QUeHIoVe-N7WYJK59KCd-1" source="QUeHIoVe-N7WYJK59KCd-25" target="QUeHIoVe-N7WYJK59KCd-27" edge="1">
          <mxGeometry relative="1" as="geometry" />
        </mxCell>
        <mxCell id="QUeHIoVe-N7WYJK59KCd-25" value="V2.0" style="ellipse;whiteSpace=wrap;html=1;aspect=fixed;fillColor=#dae8fc;strokeColor=#6c8ebf;labelPosition=center;verticalLabelPosition=top;align=center;verticalAlign=bottom;" parent="QUeHIoVe-N7WYJK59KCd-1" vertex="1">
          <mxGeometry x="410" y="40" width="30" height="30" as="geometry" />
        </mxCell>
        <mxCell id="QUeHIoVe-N7WYJK59KCd-30" value="" style="edgeStyle=orthogonalEdgeStyle;orthogonalLoop=1;jettySize=auto;html=1;dashed=1;startFill=0;endArrow=none;endFill=0;strokeColor=#6c8ebf;fillColor=#dae8fc;" parent="QUeHIoVe-N7WYJK59KCd-1" source="QUeHIoVe-N7WYJK59KCd-27" target="QUeHIoVe-N7WYJK59KCd-29" edge="1">
          <mxGeometry relative="1" as="geometry" />
        </mxCell>
        <mxCell id="QUeHIoVe-N7WYJK59KCd-27" value="V2.1" style="ellipse;whiteSpace=wrap;html=1;aspect=fixed;fillColor=#dae8fc;strokeColor=#6c8ebf;labelPosition=center;verticalLabelPosition=top;align=center;verticalAlign=bottom;" parent="QUeHIoVe-N7WYJK59KCd-1" vertex="1">
          <mxGeometry x="510" y="40" width="30" height="30" as="geometry" />
        </mxCell>
        <mxCell id="QUeHIoVe-N7WYJK59KCd-29" value="Master" style="rounded=0;whiteSpace=wrap;html=1;fontFamily=Helvetica;fontSize=12;fontColor=#000000;align=center;strokeColor=#6c8ebf;fillColor=#dae8fc;" parent="QUeHIoVe-N7WYJK59KCd-1" vertex="1">
          <mxGeometry x="610" y="40" width="110" height="30" as="geometry" />
        </mxCell>
        <mxCell id="QUeHIoVe-N7WYJK59KCd-34" value="" style="edgeStyle=orthogonalEdgeStyle;orthogonalLoop=1;jettySize=auto;html=1;dashed=1;startFill=0;endArrow=none;endFill=0;strokeColor=#9673a6;fillColor=#e1d5e7;" parent="QUeHIoVe-N7WYJK59KCd-1" source="QUeHIoVe-N7WYJK59KCd-32" target="QUeHIoVe-N7WYJK59KCd-33" edge="1">
          <mxGeometry relative="1" as="geometry" />
        </mxCell>
        <mxCell id="QUeHIoVe-N7WYJK59KCd-32" value="" style="ellipse;whiteSpace=wrap;html=1;aspect=fixed;fillColor=#e1d5e7;strokeColor=#9673a6;labelPosition=center;verticalLabelPosition=top;align=center;verticalAlign=bottom;" parent="QUeHIoVe-N7WYJK59KCd-1" vertex="1">
          <mxGeometry x="90" y="80" width="30" height="30" as="geometry" />
        </mxCell>
        <mxCell id="QUeHIoVe-N7WYJK59KCd-36" value="" style="edgeStyle=orthogonalEdgeStyle;orthogonalLoop=1;jettySize=auto;html=1;dashed=1;startFill=0;endArrow=none;endFill=0;strokeColor=#6c8ebf;fillColor=#dae8fc;" parent="QUeHIoVe-N7WYJK59KCd-1" source="QUeHIoVe-N7WYJK59KCd-33" target="QUeHIoVe-N7WYJK59KCd-35" edge="1">
          <mxGeometry relative="1" as="geometry" />
        </mxCell>
        <mxCell id="QUeHIoVe-N7WYJK59KCd-33" value="" style="ellipse;whiteSpace=wrap;html=1;aspect=fixed;fillColor=#e1d5e7;strokeColor=#9673a6;labelPosition=center;verticalLabelPosition=top;align=center;verticalAlign=bottom;" parent="QUeHIoVe-N7WYJK59KCd-1" vertex="1">
          <mxGeometry x="250" y="80" width="30" height="30" as="geometry" />
        </mxCell>
        <mxCell id="QUeHIoVe-N7WYJK59KCd-41" style="edgeStyle=orthogonalEdgeStyle;orthogonalLoop=1;jettySize=auto;html=1;exitX=1;exitY=0.5;exitDx=0;exitDy=0;entryX=0;entryY=0.5;entryDx=0;entryDy=0;dashed=1;startFill=0;endArrow=none;endFill=0;strokeColor=#6c8ebf;fillColor=#dae8fc;" parent="QUeHIoVe-N7WYJK59KCd-1" source="QUeHIoVe-N7WYJK59KCd-35" target="QUeHIoVe-N7WYJK59KCd-25" edge="1">
          <mxGeometry relative="1" as="geometry" />
        </mxCell>
        <mxCell id="QUeHIoVe-N7WYJK59KCd-35" value="" style="ellipse;whiteSpace=wrap;html=1;aspect=fixed;fillColor=#e1d5e7;strokeColor=#9673a6;labelPosition=center;verticalLabelPosition=top;align=center;verticalAlign=bottom;" parent="QUeHIoVe-N7WYJK59KCd-1" vertex="1">
          <mxGeometry x="340" y="80" width="30" height="30" as="geometry" />
        </mxCell>
      </root>
    </mxGraphModel>
  </diagram>
</mxfile>
